<?xml version="1.0" standalone="no"?>
<!DOCTYPE svg PUBLIC "-//W3C//DTD SVG 20010904//EN"
 "http://www.w3.org/TR/2001/REC-SVG-20010904/DTD/svg10.dtd">
<svg version="1.0" xmlns="http://www.w3.org/2000/svg"
 width="774.000000pt" height="774.000000pt" viewBox="0 0 774.000000 774.000000"
 preserveAspectRatio="xMidYMid meet">
<metadata>
Created by potrace 1.11, written by Peter Selinger 2001-2013
</metadata>
<g transform="translate(0.000000,774.000000) scale(0.100000,-0.100000)"
fill="#000000" stroke="none">
<path d="M716 6774 c-351 -64 -639 -355 -701 -709 -12 -68 -15 -174 -15 -478
l0 -391 54 80 c185 268 399 422 748 539 248 82 467 115 774 115 155 0 481 -23
493 -35 2 -2 0 -25 -4 -50 -6 -43 -8 -46 -30 -41 -14 4 -104 11 -202 16 -335
20 -561 -20 -808 -140 -304 -149 -602 -447 -745 -745 -102 -213 -141 -460
-105 -652 45 -236 219 -415 505 -517 72 -26 253 -76 276 -76 6 0 24 19 39 43
50 75 250 339 345 452 226 272 578 624 845 847 537 449 1232 827 1638 893 170
28 286 14 402 -48 l62 -33 69 18 c201 51 307 62 599 63 177 0 324 -5 399 -14
l118 -14 -6 -45 c-3 -25 -7 -47 -9 -48 -1 -2 -36 2 -77 7 -41 6 -165 11 -275
11 -218 1 -317 -11 -469 -59 -72 -22 -195 -70 -204 -78 -2 -2 8 -33 22 -68 89
-223 24 -508 -182 -796 -141 -198 -331 -384 -543 -532 -50 -35 -101 -72 -113
-81 l-21 -17 38 -75 c60 -118 175 -224 322 -298 111 -56 398 -141 414 -122 4
5 48 65 97 134 291 409 717 866 1119 1202 619 517 1392 909 1790 908 114 0
247 -47 333 -116 l32 -27 0 90 c0 50 -7 130 -15 178 -63 359 -351 647 -710
710 -77 13 -453 15 -3154 14 -2601 -1 -3078 -3 -3145 -15z"/>
<path d="M3846 5824 c-224 -50 -468 -216 -772 -525 -307 -314 -587 -675 -970
-1254 -208 -314 -227 -345 -210 -345 8 0 57 9 110 20 421 86 793 230 1156 446
182 109 167 89 137 181 -33 102 -36 117 -46 226 -23 237 44 470 198 694 163
239 339 382 601 492 l91 38 -43 18 c-60 24 -169 28 -252 9z"/>
<path d="M7250 5825 c-210 -48 -432 -190 -694 -445 -329 -320 -624 -693 -1025
-1295 -233 -350 -255 -385 -237 -385 20 0 191 36 288 60 424 107 855 305 1213
558 105 74 400 370 497 497 282 373 419 685 368 840 -18 54 -91 129 -152 155
-66 28 -172 34 -258 15z"/>
<path d="M4179 5528 c-46 -34 -129 -108 -184 -163 -250 -251 -389 -514 -424
-804 -7 -51 -10 -95 -8 -97 8 -8 245 244 316 336 163 210 304 447 357 602 23
67 43 188 32 188 -3 0 -43 -28 -89 -62z"/>
<path d="M7696 4854 c-198 -299 -533 -582 -916 -774 -384 -193 -863 -350
-1369 -450 -106 -22 -194 -40 -195 -42 -1 -2 -45 -93 -98 -203 -261 -541 -356
-814 -389 -1116 -14 -122 -6 -311 15 -388 49 -178 168 -290 363 -343 104 -28
354 -30 488 -4 313 61 583 211 826 458 245 248 363 508 363 793 -1 167 -33
260 -129 364 -160 175 -399 158 -673 -49 -53 -40 -106 -92 -139 -135 -68 -89
-161 -278 -207 -422 -35 -111 -86 -338 -86 -386 0 -48 -9 -57 -56 -57 -24 0
-44 1 -44 3 0 1 -11 56 -25 122 -32 154 -42 315 -26 426 51 347 334 639 693
713 101 21 281 21 362 0 138 -35 281 -137 356 -254 143 -223 100 -612 -104
-925 -188 -289 -473 -530 -768 -648 -192 -78 -364 -109 -593 -110 -306 -1
-537 65 -765 218 -455 305 -630 786 -490 1354 45 180 118 377 201 542 l28 57
-92 22 c-290 70 -523 195 -710 382 l-98 97 -80 -40 c-339 -170 -845 -334
-1329 -430 -112 -22 -196 -43 -199 -50 -2 -7 -37 -80 -78 -161 -144 -291 -264
-578 -332 -790 -70 -221 -100 -532 -67 -698 43 -212 159 -334 373 -392 103
-27 343 -30 480 -5 272 50 525 177 745 374 305 274 453 560 452 878 -1 167
-33 260 -129 364 -160 175 -399 158 -673 -49 -108 -81 -174 -167 -252 -325
-87 -177 -143 -370 -185 -637 -6 -37 -7 -38 -50 -38 -25 0 -45 1 -45 3 0 1
-11 56 -25 122 -80 384 -14 664 209 889 176 178 391 266 647 266 185 0 312
-47 431 -158 112 -106 162 -205 177 -354 30 -287 -89 -603 -331 -879 -333
-378 -728 -561 -1213 -562 -396 -1 -706 122 -965 383 -344 345 -425 793 -244
1353 38 115 104 278 155 378 l28 57 -92 22 c-324 78 -601 240 -778 453 l-49
58 0 -1184 c0 -1015 2 -1197 15 -1272 52 -298 259 -550 546 -664 163 -65 -57
-61 3309 -61 3364 0 3142 -4 3310 61 220 85 414 279 501 503 61 158 59 98 57
1825 l-3 1574 -39 -59z"/>
</g>
</svg>
